# File created by Blade
# Date/Time:  Tue Apr 07 20:41:02 2015
# Frame Rate: 120.000 fps
#------------------------------------------------------
:FULLY-SPECIFIED
:DEGREES
1195
root 3.897179 34.478354 -4.002386 22.484219 -18.096757 -55.225594
Spine -0.135758 23.392103 35.984328
Head 9.445296 -0.167525 21.068986
LeftShoulder -17.860900 20.121502 39.543089
LeftArm 107.377516 -77.035607 -77.216592
LeftForeArm 19.504792 0.000000 29.185754
LeftHand 11.914464 -0.000000 22.356323
LeftHandThumb1 -26.253704 0.000000 33.147579
RightShoulder -6.491448 35.379269 -30.269076
RightArm 63.236845 74.174164 98.948036
RightForeArm 38.506604 -0.000000 59.791954
RightHand 1.739774 -0.000000 29.117904
RightHandThumb1 -24.326973 -0.000000 -32.862282
LeftUpLeg -8.787656 2.355414 48.783934
LeftLeg 19.437682 -0.000000 -0.000000
LeftFoot -12.116446 43.235907 -6.696390
LeftToeBase -3.881798 -0.000000 0.000000
RightUpLeg -136.984930 -54.608195 25.209070
RightLeg -12.517662 -0.000000 0.000000
RightFoot 37.292131 -23.204283 16.111881
RightToeBase 22.988010 -0.000000 -0.000000
1196
root 3.901102 34.479983 -4.002583 22.446255 -18.053011 -55.222538
Spine -0.163809 23.380218 35.991483
Head 9.444821 -0.221958 21.113819
LeftShoulder -17.831620 20.147998 39.545929
LeftArm 107.447097 -77.084248 -77.291559
LeftForeArm 19.378430 0.000000 29.244439
LeftHand 11.923095 -0.000000 21.636395
LeftHandThumb1 -26.253704 0.000000 33.147579
RightShoulder -6.489073 35.352307 -30.267664
RightArm 63.352841 74.194301 99.049595
RightForeArm 38.527820 -0.000000 59.760279
RightHand 1.746626 -0.000000 29.092654
RightHandThumb1 -24.326973 -0.000000 -32.862282
LeftUpLeg -8.801894 2.362447 48.792767
LeftLeg 19.433887 -0.000000 -0.000000
LeftFoot -12.086067 43.194466 -6.649700
LeftToeBase -3.883676 -0.000000 0.000000
RightUpLeg -137.024669 -54.634618 25.267271
RightLeg -12.512495 -0.000000 0.000000
RightFoot 37.293984 -23.232660 16.151694
RightToeBase 22.866998 -0.000000 -0.000000
1197
root 3.904856 34.481670 -4.002454 22.396566 -18.005555 -55.213701
Spine -0.186927 23.380272 35.993109
Head 9.441978 -0.282887 21.150757
LeftShoulder -17.804482 20.183886 39.553125
LeftArm 107.790019 -77.098432 -77.627441
LeftForeArm 19.381811 -0.000000 29.278101
LeftHand 11.938266 -0.000000 21.652954
LeftHandThumb1 -26.253704 0.000000 33.147579
RightShoulder -6.505980 35.304163 -30.275093
RightArm 63.406030 74.216012 99.087630
RightForeArm 38.578724 -0.000000 59.749732
RightHand 1.769177 0.000000 29.062863
RightHandThumb1 -24.326973 -0.000000 -32.862282
LeftUpLeg -8.801880 2.344828 48.796824
LeftLeg 19.413052 -0.000000 -0.000000
LeftFoot -12.085295 43.152253 -6.627152
LeftToeBase -3.886934 -0.000000 0.000000
RightUpLeg -137.061503 -54.677894 25.314916
RightLeg -12.504095 -0.000000 0.000000
RightFoot 37.385829 -23.141129 16.049516
RightToeBase 22.640274 -0.000000 -0.000000
1198
root 3.908776 34.483432 -4.001723 22.367045 -17.994168 -55.205667
Spine -0.220657 23.388112 35.968790
Head 9.469301 -0.318221 21.213496
LeftShoulder -17.781071 20.189891 39.584230
LeftArm 107.866353 -77.127448 -77.680316
LeftForeArm 19.499219 -0.000000 29.276038
LeftHand 11.871517 -0.000000 22.591276
LeftHandThumb1 -26.253704 0.000000 33.147579
RightShoulder -6.509918 35.292932 -30.264277
RightArm 63.385258 74.223157 99.070902
RightForeArm 38.595142 -0.000000 59.731826
RightHand 1.792787 0.000000 29.102770
RightHandThumb1 -24.326973 -0.000000 -32.862282
LeftUpLeg -8.773425 2.334165 48.786030
LeftLeg 19.368482 -0.000000 -0.000000
LeftFoot -12.084936 43.141198 -6.629707
LeftToeBase -3.903646 -0.000000 0.000000
RightUpLeg -137.079660 -54.680394 25.328598
RightLeg -12.509169 -0.000000 0.000000
RightFoot 37.496629 -23.028689 15.794706
RightToeBase 22.404106 -0.000000 -0.000000
1199
root 3.910933 34.484495 -4.001108 22.325040 -18.003889 -55.185944
Spine -0.236230 23.405593 35.920474
Head 9.476717 -0.365994 21.291964
LeftShoulder -17.769347 20.173830 39.617975
LeftArm 107.960649 -77.129922 -77.753971
LeftForeArm 19.510113 -0.000000 29.315055
LeftHand 11.845413 -0.000000 22.612431
LeftHandThumb1 -26.253704 0.000000 33.147579
RightShoulder -6.518437 35.289836 -30.247210
RightArm 63.316016 74.221782 99.005637
RightForeArm 38.665755 -0.000000 59.727485
RightHand 1.819923 -0.000000 29.082471
RightHandThumb1 -24.326973 -0.000000 -32.862282
LeftUpLeg -8.718323 2.315495 48.760758
LeftLeg 19.311775 -0.000000 -0.000000
LeftFoot -12.113561 43.127008 -6.658720
LeftToeBase -3.945789 -0.000000 0.000000
RightUpLeg -137.109885 -54.639531 25.336044
RightLeg -12.512997 -0.000000 0.000000
RightFoot 37.532128 -23.015595 15.643874
RightToeBase 22.477689 -0.000000 -0.000000
1200
root 3.914455 34.485281 -3.998185 22.262762 -18.013466 -55.168892
Spine -0.230633 23.406858 35.890197
Head 9.499244 -0.412368 21.361506
LeftShoulder -17.819454 20.128513 39.609070
LeftArm 108.139239 -77.052672 -77.837594
LeftForeArm 19.354941 -0.000000 29.299505
LeftHand 11.977892 -0.000000 21.725437
LeftHandThumb1 -26.253704 0.000000 33.147579
RightShoulder -6.537033 35.342229 -30.239728
RightArm 63.117392 74.216354 98.808648
RightForeArm 38.727912 0.000000 59.698972
RightHand 1.826329 0.000000 29.100993
RightHandThumb1 -24.326973 -0.000000 -32.862282
LeftUpLeg -8.639860 2.269359 48.732829
LeftLeg 19.247730 -0.000000 -0.000000
LeftFoot -12.170393 43.123235 -6.736904
LeftToeBase -3.967566 -0.000000 0.000000
RightUpLeg -137.153144 -54.593166 25.375602
RightLeg -12.517889 -0.000000 0.000000
RightFoot 37.502110 -23.031365 15.705998
RightToeBase 22.551638 -0.000000 -0.000000
1201
root 3.919406 34.485513 -3.993137 22.200342 -18.017960 -55.137518
Spine -0.245046 23.402324 35.851042
Head 9.534484 -0.439889 21.408909
LeftShoulder -17.848196 20.152370 39.602234
LeftArm 108.451201 -77.011336 -78.084355
LeftForeArm 19.385272 -0.000000 29.286412
LeftHand 11.994315 -0.000000 21.663691
LeftHandThumb1 -26.253704 0.000000 33.147579
RightShoulder -6.551770 35.352533 -30.236565
RightArm 63.073496 74.200431 98.774737
RightForeArm 38.839201 0.000000 59.677929
RightHand 1.852829 0.000000 28.922081
RightHandThumb1 -24.326973 -0.000000 -32.862282
LeftUpLeg -8.573654 2.202252 48.688202
LeftLeg 19.193796 -0.000000 -0.000000
LeftFoot -12.256349 43.127630 -6.862273
LeftToeBase -4.094522 -0.000000 0.000000
RightUpLeg -137.201665 -54.571138 25.401074
RightLeg -12.509574 -0.000000 0.000000
RightFoot 37.455826 -23.069237 15.769397
RightToeBase 22.384303 -0.000000 -0.000000
1202
root 3.923502 34.486001 -3.989014 22.146089 -18.027490 -55.125708
Spine -0.254788 23.389931 35.835630
Head 9.586819 -0.471764 21.423395
LeftShoulder -17.811835 20.177100 39.638043
LeftArm 108.362846 -77.075719 -78.006376
LeftForeArm 19.431831 0.000000 29.329174
LeftHand 11.861195 -0.000000 22.552318
LeftHandThumb1 -26.253704 0.000000 33.147579
RightShoulder -6.538901 35.384469 -30.233390
RightArm 62.987698 74.191926 98.708778
RightForeArm 38.865446 -0.000000 59.691946
RightHand 1.754081 -0.000000 28.983470
RightHandThumb1 -24.326973 -0.000000 -32.862282
LeftUpLeg -8.506403 2.147513 48.665731
LeftLeg 19.161289 -0.000000 -0.000000
LeftFoot -12.494481 43.081144 -7.177818
LeftToeBase -3.933389 -0.000000 0.000000
RightUpLeg -137.241154 -54.530986 25.437200
RightLeg -12.521263 -0.000000 0.000000
RightFoot 37.480500 -23.034026 15.669432
RightToeBase 22.250861 -0.000000 -0.000000
